<svg width="147" height="87" viewBox="0 0 147 87" fill="none" xmlns="http://www.w3.org/2000/svg">
<path d="M0 0C9.94112 0 18 8.05888 18 18V78C8.05888 78 0 69.9411 0 60V0Z" fill="#4B36D7"/>
<rect x="20" y="9.00024" width="18" height="78" rx="9" fill="#8C87AF"/>
<path d="M40 18C40 8.05887 48.0589 0 58 0V60C58 69.9411 49.9411 78 40 78V18Z" fill="#4B36D7"/>
<path d="M75.5312 40.4883L79.125 31.7578H84.5156V32.1191H84.0859C83.6953 32.1191 83.3828 32.1875 83.1484 32.3242C82.9857 32.4154 82.8555 32.5684 82.7578 32.7832C82.6862 32.9395 82.6504 33.3464 82.6504 34.0039V42.7344C82.6504 43.4115 82.6862 43.8346 82.7578 44.0039C82.8294 44.1732 82.9759 44.3229 83.1973 44.4531C83.4186 44.5768 83.7148 44.6387 84.0859 44.6387H84.5156V45H77.6016V44.6387H78.0312C78.4219 44.6387 78.7344 44.5703 78.9688 44.4336C79.1315 44.3424 79.2617 44.1862 79.3594 43.9648C79.431 43.8086 79.4668 43.3984 79.4668 42.7344V32.9199L74.3887 45H74.1543L68.998 33.0078V42.334C68.998 42.985 69.0143 43.3854 69.0469 43.5352C69.1315 43.8607 69.3138 44.1276 69.5938 44.3359C69.8802 44.5378 70.3262 44.6387 70.9316 44.6387V45H66.4004V44.6387H66.5371C66.8301 44.6452 67.1035 44.5996 67.3574 44.502C67.6113 44.3978 67.8034 44.2611 67.9336 44.0918C68.0638 43.9225 68.1647 43.6849 68.2363 43.3789C68.2493 43.3073 68.2559 42.9753 68.2559 42.3828V34.0039C68.2559 33.3333 68.2201 32.9167 68.1484 32.7539C68.0768 32.5846 67.9303 32.4382 67.709 32.3145C67.4876 32.1842 67.1914 32.1191 66.8203 32.1191H66.4004V31.7578H71.8105L75.5312 40.4883ZM89.75 45.3711L86.8008 38.6035C86.3581 37.5814 86.0293 36.9531 85.8145 36.7188C85.6061 36.4844 85.3522 36.3216 85.0527 36.2305V35.8691H89.9062V36.2305C89.5872 36.2435 89.3626 36.3053 89.2324 36.416C89.1022 36.5267 89.0371 36.6602 89.0371 36.8164C89.0371 37.0638 89.1999 37.5521 89.5254 38.2812L91.0879 41.8555L92.1523 39.0918C92.5365 38.1087 92.7285 37.4251 92.7285 37.041C92.7285 36.8001 92.6471 36.6081 92.4844 36.4648C92.3281 36.3216 92.0482 36.2435 91.6445 36.2305V35.8691H94.7012V36.2305C94.4017 36.263 94.1576 36.3802 93.9688 36.582C93.7799 36.7773 93.4642 37.4512 93.0215 38.6035L90.4141 45.3711C89.7565 47.0638 89.2682 48.1055 88.9492 48.4961C88.5 49.043 87.9368 49.3164 87.2598 49.3164C86.7194 49.3164 86.2799 49.1602 85.9414 48.8477C85.6094 48.5417 85.4434 48.1706 85.4434 47.7344C85.4434 47.3568 85.5573 47.0443 85.7852 46.7969C86.0195 46.5495 86.306 46.4258 86.6445 46.4258C86.9701 46.4258 87.2305 46.5299 87.4258 46.7383C87.6276 46.9466 87.7318 47.2689 87.7383 47.7051C87.7448 47.9525 87.7741 48.112 87.8262 48.1836C87.8783 48.2552 87.9531 48.291 88.0508 48.291C88.207 48.291 88.373 48.1966 88.5488 48.0078C88.8092 47.7344 89.1152 47.1094 89.4668 46.1328L89.75 45.3711ZM101.332 35.6152L101.479 38.7305H101.146C100.749 37.806 100.336 37.1745 99.9062 36.8359C99.4831 36.4974 99.0599 36.3281 98.6367 36.3281C98.3698 36.3281 98.1419 36.4193 97.9531 36.6016C97.7643 36.7773 97.6699 36.9824 97.6699 37.2168C97.6699 37.3926 97.735 37.5618 97.8652 37.7246C98.0736 37.9915 98.6562 38.4505 99.6133 39.1016C100.57 39.7461 101.199 40.2962 101.498 40.752C101.804 41.2012 101.957 41.7057 101.957 42.2656C101.957 42.7734 101.83 43.2715 101.576 43.7598C101.322 44.248 100.964 44.6224 100.502 44.8828C100.04 45.1432 99.5286 45.2734 98.9688 45.2734C98.5326 45.2734 97.9499 45.1367 97.2207 44.8633C97.0254 44.7917 96.8919 44.7559 96.8203 44.7559C96.6055 44.7559 96.4264 44.9186 96.2832 45.2441H95.9609L95.8047 41.9629H96.1367C96.4297 42.8223 96.8301 43.4668 97.3379 43.8965C97.8522 44.3262 98.3372 44.541 98.793 44.541C99.1055 44.541 99.3594 44.4466 99.5547 44.2578C99.7565 44.0625 99.8574 43.8281 99.8574 43.5547C99.8574 43.2422 99.7598 42.972 99.5645 42.7441C99.3691 42.5163 98.9329 42.1712 98.2559 41.709C97.2598 41.0189 96.6152 40.4915 96.3223 40.127C95.8926 39.5931 95.6777 39.0039 95.6777 38.3594C95.6777 37.6562 95.9186 37.0215 96.4004 36.4551C96.8887 35.8822 97.5918 35.5957 98.5098 35.5957C99.0046 35.5957 99.4831 35.7161 99.9453 35.957C100.121 36.0547 100.264 36.1035 100.375 36.1035C100.492 36.1035 100.587 36.0807 100.658 36.0352C100.73 35.9831 100.844 35.8431 101 35.6152H101.332ZM106.977 32.5293V35.8691H109.145V36.8359H106.977V42.4707C106.977 42.998 106.999 43.3398 107.045 43.4961C107.097 43.6458 107.185 43.7695 107.309 43.8672C107.432 43.9583 107.546 44.0039 107.65 44.0039C108.074 44.0039 108.474 43.6816 108.852 43.0371L109.145 43.252C108.617 44.502 107.761 45.127 106.576 45.127C105.997 45.127 105.505 44.9674 105.102 44.6484C104.704 44.3229 104.451 43.9616 104.34 43.5645C104.275 43.3431 104.242 42.7441 104.242 41.7676V36.8359H103.051V36.4941C103.871 35.9147 104.568 35.306 105.141 34.668C105.72 34.0299 106.225 33.3171 106.654 32.5293H106.977ZM112.211 31.4453C112.634 31.4453 112.992 31.5951 113.285 31.8945C113.578 32.1875 113.725 32.5423 113.725 32.959C113.725 33.3757 113.575 33.7305 113.275 34.0234C112.982 34.3164 112.628 34.4629 112.211 34.4629C111.794 34.4629 111.439 34.3164 111.146 34.0234C110.854 33.7305 110.707 33.3757 110.707 32.959C110.707 32.5423 110.854 32.1875 111.146 31.8945C111.439 31.5951 111.794 31.4453 112.211 31.4453ZM113.578 35.8691V43.1055C113.578 43.75 113.653 44.1634 113.803 44.3457C113.952 44.5215 114.245 44.6224 114.682 44.6484V45H109.75V44.6484C110.154 44.6354 110.453 44.5182 110.648 44.2969C110.779 44.1471 110.844 43.75 110.844 43.1055V37.7734C110.844 37.1289 110.769 36.7188 110.619 36.543C110.469 36.3607 110.18 36.2565 109.75 36.2305V35.8691H113.578ZM121.713 44.043C121.316 44.4596 120.945 44.7526 120.6 44.9219C120.144 45.1562 119.669 45.2734 119.174 45.2734C118.028 45.2734 117.123 44.7624 116.459 43.7402C115.932 42.9264 115.668 41.9531 115.668 40.8203C115.668 39.8763 115.867 38.9909 116.264 38.1641C116.667 37.3307 117.217 36.696 117.914 36.2598C118.617 35.8171 119.359 35.5957 120.141 35.5957C120.661 35.5957 121.124 35.6836 121.527 35.8594C121.938 36.0352 122.289 36.3021 122.582 36.6602L124.115 35.5957H124.447V47.4219C124.447 48.0208 124.499 48.3952 124.604 48.5449C124.773 48.7858 125.115 48.9095 125.629 48.916V49.2773H120.355V48.916C120.759 48.916 121.052 48.8704 121.234 48.7793C121.417 48.6882 121.54 48.5677 121.605 48.418C121.677 48.2682 121.713 47.9622 121.713 47.5V44.043ZM121.713 43.1543V39.3945C121.713 38.3464 121.654 37.653 121.537 37.3145C121.426 36.9759 121.218 36.6829 120.912 36.4355C120.756 36.3118 120.557 36.25 120.316 36.25C119.822 36.25 119.438 36.4681 119.164 36.9043C118.734 37.5749 118.52 38.8216 118.52 40.6445C118.52 42.0443 118.705 43.0273 119.076 43.5938C119.33 43.9779 119.659 44.1699 120.062 44.1699C120.297 44.1699 120.561 44.0885 120.854 43.9258C121.153 43.763 121.439 43.5059 121.713 43.1543ZM135.531 35.8691V43.0176C135.531 43.7142 135.596 44.1504 135.727 44.3262C135.857 44.4954 136.12 44.6029 136.518 44.6484V45H132.797V43.7793C132.361 44.3001 131.924 44.681 131.488 44.9219C131.052 45.1562 130.564 45.2734 130.023 45.2734C129.509 45.2734 129.05 45.1172 128.646 44.8047C128.249 44.4857 127.982 44.1146 127.846 43.6914C127.709 43.2682 127.641 42.5293 127.641 41.4746V37.8516C127.641 37.1615 127.576 36.7318 127.445 36.5625C127.322 36.3932 127.058 36.2826 126.654 36.2305V35.8691H130.375V42.1094C130.375 42.7604 130.404 43.1803 130.463 43.3691C130.528 43.5579 130.626 43.7012 130.756 43.7988C130.893 43.8965 131.049 43.9453 131.225 43.9453C131.459 43.9453 131.671 43.8835 131.859 43.7598C132.12 43.5905 132.432 43.2487 132.797 42.7344V37.8516C132.797 37.1615 132.732 36.7318 132.602 36.5625C132.478 36.3932 132.214 36.2826 131.811 36.2305V35.8691H135.531ZM145.58 40.1074H140.57C140.629 41.3184 140.951 42.2754 141.537 42.9785C141.986 43.5189 142.527 43.7891 143.158 43.7891C143.549 43.7891 143.904 43.6816 144.223 43.4668C144.542 43.2454 144.883 42.8516 145.248 42.2852L145.58 42.5C145.085 43.5091 144.538 44.2253 143.939 44.6484C143.34 45.0651 142.647 45.2734 141.859 45.2734C140.505 45.2734 139.48 44.7526 138.783 43.7109C138.223 42.8711 137.943 41.8294 137.943 40.5859C137.943 39.0625 138.354 37.8516 139.174 36.9531C140.001 36.0482 140.967 35.5957 142.074 35.5957C142.999 35.5957 143.799 35.9766 144.477 36.7383C145.16 37.4935 145.528 38.6165 145.58 40.1074ZM143.178 39.4531C143.178 38.4049 143.119 37.6855 143.002 37.2949C142.891 36.9043 142.715 36.6081 142.475 36.4062C142.338 36.2891 142.156 36.2305 141.928 36.2305C141.589 36.2305 141.312 36.3965 141.098 36.7285C140.714 37.3079 140.521 38.1022 140.521 39.1113V39.4531H143.178Z" fill="#264653"/>
</svg>
